<svg id="Calque_1" data-name="Calque 1" xmlns="http://www.w3.org/2000/svg" viewBox="0 0 112.74 112.74"><defs><style>.cls-1{fill:#fff;stroke:#ff2d00;stroke-miterlimit:10;stroke-width:5px;}.cls-2{fill:#ff2d00;}</style></defs><title>studio-logo-favicon-carre</title><rect class="cls-1" x="2.5" y="2.5" width="107.74" height="107.74"/><path class="cls-2" d="M421.09,325.38a22.16,22.16,0,0,1-9.45-1.85,14.15,14.15,0,0,1-6.17-5.24,14.42,14.42,0,0,1-2.18-8h8.57a6.58,6.58,0,0,0,2.51,5.47,10.74,10.74,0,0,0,6.87,2,9.76,9.76,0,0,0,6.43-2,6.67,6.67,0,0,0,2.36-5.43,7.91,7.91,0,0,0-1.62-5,8.06,8.06,0,0,0-4.66-2.85l-6.5-1.85a17.71,17.71,0,0,1-9.46-5.87,15.5,15.5,0,0,1-3.32-9.94,14.79,14.79,0,0,1,2-7.9,13.88,13.88,0,0,1,5.76-5.21,19.32,19.32,0,0,1,8.83-1.89q7.7,0,12.19,4a13.93,13.93,0,0,1,4.59,10.75h-8.65a6.7,6.7,0,0,0-2.14-5.25,10.49,10.49,0,0,0-11.94-.11,6.24,6.24,0,0,0-2.1,5,8,8,0,0,0,1.59,5,8.59,8.59,0,0,0,4.54,3l6.73,1.92a17.32,17.32,0,0,1,9.42,5.77,15.74,15.74,0,0,1,3.28,10.12,14.27,14.27,0,0,1-8.27,13.37A20.77,20.77,0,0,1,421.09,325.38Z" transform="translate(-364.57 -241.27)"/></svg>