<?xml version="1.0" encoding="utf-8"?>
<!-- Generator: Adobe Illustrator 23.0.1, SVG Export Plug-In . SVG Version: 6.00 Build 0)  -->
<svg version="1.1" id="Calque_1" xmlns="http://www.w3.org/2000/svg" xmlns:xlink="http://www.w3.org/1999/xlink" x="0px" y="0px"
	 viewBox="0 0 841.89 285.28" style="enable-background:new 0 0 841.89 285.28;" xml:space="preserve">
<style type="text/css">
	.st0{fill:#FF2D00;}
</style>
<g>
	<g>
		<path class="st0" d="M146.24,221.57c-10.37,0-19.34-1.75-26.91-5.26c-7.57-3.5-13.42-8.48-17.55-14.93
			c-4.14-6.44-6.2-14.01-6.2-22.7h24.38c0,6.59,2.38,11.77,7.15,15.55c4.76,3.78,11.28,5.68,19.55,5.68c7.71,0,13.8-1.85,18.29-5.57
			c4.48-3.71,6.73-8.86,6.73-15.45c0-5.47-1.54-10.19-4.62-14.19c-3.08-3.99-7.5-6.69-13.24-8.09l-18.5-5.26
			c-11.63-3.22-20.6-8.79-26.91-16.71c-6.31-7.91-9.46-17.34-9.46-28.27c0-8.69,1.92-16.19,5.78-22.49
			c3.85-6.31,9.32-11.25,16.4-14.82c7.07-3.57,15.45-5.36,25.12-5.36c14.57,0,26.13,3.82,34.68,11.45
			c8.55,7.64,12.89,17.83,13.03,30.58h-24.59c0-6.31-2.03-11.28-6.09-14.92c-4.07-3.64-9.81-5.47-17.24-5.47
			c-7.15,0-12.72,1.72-16.71,5.15c-3.99,3.43-5.99,8.16-5.99,14.19c0,5.61,1.51,10.37,4.52,14.29c3.01,3.93,7.32,6.73,12.93,8.41
			l19.13,5.47c11.63,3.08,20.57,8.55,26.8,16.4c6.23,7.85,9.35,17.45,9.35,28.8c0,8.69-2.07,16.29-6.2,22.81
			c-4.14,6.52-9.92,11.6-17.34,15.24C165.08,219.74,156.32,221.57,146.24,221.57z"/>
		<path class="st0" d="M260.79,219.47V88.51h-40.78v-22.7h105.94v22.7h-40.78v130.96H260.79z"/>
		<path class="st0" d="M400.15,221.57c-14.85,0-26.38-4.06-34.58-12.19c-8.2-8.13-12.3-19.2-12.3-33.21V66.02h24.38v109.94
			c0,7.57,1.89,13.49,5.68,17.76c3.78,4.28,9.39,6.41,16.82,6.41c7.28,0,12.86-2.13,16.71-6.41c3.85-4.27,5.78-10.19,5.78-17.76
			V66.02h24.38v110.15c0,14.01-4.06,25.09-12.19,33.21C426.71,217.51,415.15,221.57,400.15,221.57z"/>
		<path class="st0" d="M480.87,219.47V66.02h44.14c10.37,0,19.3,1.96,26.8,5.89c7.49,3.92,13.35,9.43,17.55,16.5
			c4.2,7.08,6.31,15.45,6.31,25.12v58.22c0,9.67-2.1,18.08-6.31,25.22c-4.2,7.15-10.06,12.68-17.55,16.61
			c-7.5,3.93-16.43,5.89-26.8,5.89H480.87z M505.46,196.97h19.55c8.13,0,14.51-2.24,19.13-6.73c4.63-4.48,6.94-10.65,6.94-18.5
			v-58.22c0-7.7-2.31-13.8-6.94-18.29c-4.62-4.48-11-6.73-19.13-6.73h-19.55V196.97z"/>
		<path class="st0" d="M611.19,219.47v-21.65h30.9V87.67h-30.9V66.02h86.6v21.65h-30.9v110.14h30.9v21.65H611.19z"/>
		<path class="st0" d="M781.66,221.57c-9.67,0-18.05-1.82-25.12-5.47c-7.08-3.64-12.51-8.86-16.29-15.66
			c-3.79-6.8-5.68-14.75-5.68-23.86V108.9c0-9.25,1.89-17.24,5.68-23.96c3.78-6.73,9.21-11.91,16.29-15.56
			c7.07-3.64,15.45-5.46,25.12-5.46c9.81,0,18.21,1.82,25.22,5.46c7.01,3.65,12.4,8.83,16.19,15.56c3.78,6.73,5.68,14.72,5.68,23.96
			v67.69c0,9.11-1.89,17.06-5.68,23.86c-3.78,6.8-9.18,12.02-16.19,15.66C799.88,219.74,791.47,221.57,781.66,221.57z
			 M781.66,199.92c7.43,0,13.07-2.03,16.92-6.1c3.85-4.06,5.78-9.81,5.78-17.24V108.9c0-7.57-1.93-13.35-5.78-17.34
			c-3.85-3.99-9.5-5.99-16.92-5.99c-7.43,0-13.07,2-16.92,5.99c-3.85,3.99-5.78,9.77-5.78,17.34v67.69c0,7.43,1.96,13.17,5.89,17.24
			C768.77,197.89,774.38,199.92,781.66,199.92z"/>
	</g>
	<polygon class="st0" points="278.97,276.8 10.64,276.8 10.64,8.47 278.97,8.47 278.97,45.5 267.25,45.5 267.25,20.19 22.35,20.19 
		22.35,265.09 267.25,265.09 267.25,238.77 278.97,238.77 	"/>
</g>
</svg>
