<svg id="Capa_1" enable-background="new 0 0 512 512" height="512" viewBox="0 0 512 512" width="512" xmlns="http://www.w3.org/2000/svg"><path d="m481.993 301.928h-85.584c8.804-10.67 15.423-20.784 21.451-30.009 1.502-2.298 2.982-4.565 4.472-6.802 14.958-22.489 22.073-40.923 23.068-59.77.936-17.718-3.867-35.805-14.634-54.945-.004-.007-.007-.013-.011-.02-2.508-4.457-5.338-8.971-8.496-13.551-18.189-26.345-27.76-42.647-17.315-72.871.223-.47.399-.966.521-1.484 4.06-11.222 10.821-24.359 20.846-40.584 1.856-2.984 5.311-8.538 2.369-13.832-2.811-5.06-8.548-5.06-11.629-5.06h-201.062c-3.082 0-8.817 0-11.629 5.06-2.941 5.294.513 10.848 2.358 13.813 23.733 38.4 27.903 58.402 24.948 74.2h-85.796l18.229-17.721c.069-.067.136-.135.203-.205 19.962-20.956 22.645-42.569 7.174-57.818-7.985-7.865-18.202-7.611-26.667.664-16.427 16.08-33.003 32.564-49.034 48.506-8.531 8.484-17.062 16.967-25.605 25.427-6.914 6.849-7.467 7.297-12.272 7.326-1.475-7.817-8.342-13.752-16.58-13.752h-24.435c-9.309.001-16.883 7.576-16.883 16.888v134.107c0 9.312 7.574 16.887 16.883 16.887h24.435c9.309 0 16.883-7.575 16.883-16.887v-.703c3.714-.02 7.126-.11 10.16-.195 15.748-.439 20.534-.239 26.031 7.098 8.253 11.009 20.369 17.323 33.242 17.323h81.712c.431.657.882 1.34 1.388 2.093 1.452 2.187 2.898 4.405 4.364 6.653 6.046 9.271 12.685 19.436 21.535 30.164h-69.881c-16.546 0-30.007 13.453-30.007 29.988 0 16.551 13.461 30.017 30.007 30.017h98.516v25.708c0 11.625 8.959 21.083 19.972 21.083h7.184v40.838h-56.421c-11.435 0-20.738 9.306-20.738 20.744v17.979c0 11.422 9.303 20.715 20.738 20.715h176.741c11.435 0 20.738-9.293 20.738-20.715v-17.979c0-11.438-9.303-20.744-20.738-20.744h-56.421v-40.838h7.184c11.013 0 19.972-9.458 19.972-21.083v-25.708h98.516c16.546 0 30.007-13.465 30.007-30.017-.002-16.536-13.463-29.988-30.009-29.988zm-52.227-90.804h-125.576c1.116-2.962 1.73-6.168 1.73-9.515 0-4.983-1.356-9.653-3.71-13.67 10.521-3.722 18.082-13.767 18.082-25.551 0-.309-.013-.616-.023-.922h99.448c9.603 18.373 12.283 34.408 10.049 49.658zm-207.837-193.124h189.183c-8.01 13.276-13.985 24.84-18.138 35.247l-57.81-.052c-.002 0-.004 0-.007 0-4.139 0-7.496 3.354-7.5 7.493-.004 4.142 3.351 7.503 7.493 7.507l52.893.048c-1.93 7.691-2.703 14.789-2.418 21.589.841 20.06 11.041 36.333 24.287 55.518.258.374.506.745.759 1.117h-95.569c-4.93-6.765-12.907-11.173-21.898-11.173h-11.752c1.83-3.651 2.867-7.768 2.867-12.124 0-14.94-12.151-27.096-27.087-27.096h-10.386c1.228-8.73.665-17.807-1.852-27.83l55.557-.048c4.142-.003 7.497-3.364 7.494-7.506-.003-4.14-3.36-7.494-7.5-7.494-.002 0-.004 0-.006 0l-60.472.052c-4.177-10.472-10.172-22.048-18.138-35.248zm-178.729 221.495c0 1.023-.862 1.887-1.883 1.887h-24.434c-1.021 0-1.883-.864-1.883-1.887v-134.107c0-1.023.862-1.887 1.883-1.887h24.435c1.021 0 1.883.864 1.883 1.887v134.107zm84.433 8.523c-8.225 0-15.768-4.02-21.239-11.318-10.396-13.877-22.165-13.547-38.451-13.097-2.93.082-6.22.169-9.743.189v-106.557c9.858-.206 13.537-2.75 22.523-11.65 8.551-8.467 17.089-16.958 25.628-25.449 16.01-15.921 32.565-32.385 48.946-48.419 3.193-3.123 4.119-2.211 5.65-.703 12.308 12.131.694 28.148-7.41 36.686l-26.02 25.296c-3.357 3.286-4.452 7.756-2.857 11.667 1.613 3.954 5.543 6.411 10.257 6.411h102.677 19.637c6.665 0 12.087 5.426 12.087 12.096 0 6.685-5.422 12.124-12.087 12.124h-50.428c-4.142 0-7.5 3.358-7.5 7.5s3.358 7.5 7.5 7.5h86.4c6.665 0 12.087 5.426 12.087 12.096s-5.422 12.096-12.087 12.096h-90.454c-4.142 0-7.5 3.358-7.5 7.5s3.358 7.5 7.5 7.5h76.054c6.681 0 12.116 5.439 12.116 12.124 0 4.436-2.411 8.311-5.987 10.416-.125.068-.244.146-.365.221-1.715.93-3.678 1.459-5.763 1.459h-87.732c-4.142 0-7.5 3.358-7.5 7.5s3.358 7.5 7.5 7.5h37.389c5.321 0 9.649 4.332 9.649 9.657s-4.329 9.657-9.649 9.657h-100.828zm100.028 15.553c-.121-.186-.242-.367-.363-.553h1.163c13.592 0 24.649-11.061 24.649-24.657 0-3.426-.703-6.689-1.971-9.657h27.665c4.123 0 8.032-.928 11.534-2.581h135.648c-3.61 10.188-9.204 20.251-16.143 30.683-1.511 2.27-3.015 4.572-4.541 6.907-7.955 12.174-16.174 24.743-28.876 38.214h-119.813c-12.752-13.525-20.984-26.139-28.952-38.356zm190.819 206.735v17.979c0 3.098-2.627 5.715-5.738 5.715h-176.741c-3.11 0-5.738-2.617-5.738-5.715v-17.979c0-3.167 2.574-5.744 5.738-5.744h176.741c3.164 0 5.738 2.577 5.738 5.744zm-77.159-20.744h-33.898v-40.838h33.898zm140.672-102.629h-141.506c-4.142 0-7.5 3.358-7.5 7.5s3.358 7.5 7.5 7.5h27.99v25.708c0 3.297-2.277 6.083-4.972 6.083h-78.265c-2.695 0-4.972-2.786-4.972-6.083v-25.708h27.225c4.142 0 7.5-3.358 7.5-7.5s-3.358-7.5-7.5-7.5h-140.742c-8.275 0-15.007-6.736-15.007-15.017 0-8.265 6.732-14.988 15.007-14.988h315.242c8.275 0 15.007 6.724 15.007 14.988 0 8.28-6.732 15.017-15.007 15.017z"/></svg>