<svg height="512" viewBox="0 0 128 128" width="512" xmlns="http://www.w3.org/2000/svg"><g><path d="m116.568 17.481-12.411-12.411a1.8 1.8 0 0 0 -2.474 0l-57.575 57.576-2.5-2.5a1.748 1.748 0 0 0 -2.474 0l-26.789 26.784a4.872 4.872 0 0 0 1.462 7.894 4.818 4.818 0 0 0 4.047-.05 4.96 4.96 0 0 1 3.55-.527 4.052 4.052 0 0 1 2.123 2.268l12.313 25.928a1.749 1.749 0 0 0 1.283.974 1.771 1.771 0 0 0 .3.025 1.749 1.749 0 0 0 1.237-.512l23.586-23.589a1.75 1.75 0 0 0 .344-1.988l-2.55-5.369 8.834-11.252a1.747 1.747 0 0 0 .366-.927l.334-3.805 3.772-1.411a1.753 1.753 0 0 0 1.132-1.5l.311-3.982 3.791-1.221a1.759 1.759 0 0 0 1.206-1.486l.426-3.946 3.73-1.349a1.823 1.823 0 0 0 .813-.605 1.738 1.738 0 0 0 .357-1l.129-3.866 3.959-1.283a2 2 0 0 0 .881-.639 1.744 1.744 0 0 0 .373-1.037l.1-3.932 3.988-1.221a1.827 1.827 0 0 0 .894-.633 1.746 1.746 0 0 0 .359-1.047l.03-3.779 3.975-1.232a1.747 1.747 0 0 0 .857-.591l.075-.095a1.749 1.749 0 0 0 .374-1.073l.019-3.859 3.939-1.126a1.755 1.755 0 0 0 .9-.6l.089-.113a1.758 1.758 0 0 0 .359-.86l.532-4.214 3.444-.985a1.748 1.748 0 0 0 .9-.606l.115-.147a1.738 1.738 0 0 0 .37-1.026l.116-3.891 3.892-1.174a2.058 2.058 0 0 0 .937-.679 1.751 1.751 0 0 0 -.15-2.311zm-78.631 101.219-11.248-23.687a7.375 7.375 0 0 0 -4.115-4.065 6.415 6.415 0 0 0 -2.159-.364 9.5 9.5 0 0 0 -4.07 1.032 1.3 1.3 0 0 1 -1.112.013 1.375 1.375 0 0 1 -.414-2.225l25.549-25.549 2.5 2.5v.005h.005l8.871 8.87.336 7.83a1.74 1.74 0 0 0 .167.676l6.649 14zm71.733-100.046a1.751 1.751 0 0 0 -1.244 1.624l-.118 3.989-3.436.983a1.751 1.751 0 0 0 -1.255 1.463l-.543 4.3-4.169 1.191a1.751 1.751 0 0 0 -1.269 1.674l-.02 3.963-4.045 1.259a1.75 1.75 0 0 0 -1.231 1.658l-.03 3.79-3.982 1.219a1.748 1.748 0 0 0 -1.236 1.63l-.1 3.994-3.992 1.29a1.749 1.749 0 0 0 -1.211 1.606l-.131 3.926-3.659 1.322a1.75 1.75 0 0 0 -1.145 1.458l-.421 3.9-3.833 1.238a1.751 1.751 0 0 0 -1.209 1.529l-.316 4.04-3.761 1.406a1.747 1.747 0 0 0 -1.129 1.486l-.385 4.388-7.437 9.472-2.8-5.893-.35-8.157a1.751 1.751 0 0 0 -.513-1.162l-8.119-8.119 56.339-56.339 9.148 9.149z"/><path d="m82.9 34.43-22.254 22.258a1.749 1.749 0 1 0 2.474 2.474l22.259-22.262a1.75 1.75 0 1 0 -2.479-2.47z"/><path d="m92.253 25.081-2.885 2.885a1.75 1.75 0 1 0 2.475 2.474l2.885-2.884a1.75 1.75 0 0 0 -2.475-2.475z"/><path d="m37.765 82.6a5.153 5.153 0 0 0 -9.309 4.42l8.054 16.959a5.152 5.152 0 0 0 9.308-4.42zm4.567 20.337a1.652 1.652 0 0 1 -2.66-.46l-8.054-16.955a1.654 1.654 0 0 1 .324-1.876 1.629 1.629 0 0 1 1.161-.485 1.584 1.584 0 0 1 .289.026 1.627 1.627 0 0 1 1.211.918l8.053 16.959a1.656 1.656 0 0 1 -.324 1.877z"/></g></svg>