<svg id="line_icons" height="512" viewBox="0 0 74 74" width="512" xmlns="http://www.w3.org/2000/svg" data-name="line icons"><path d="m40.847 17.185a6.092 6.092 0 1 1 6.1-6.082 6.1 6.1 0 0 1 -6.1 6.082zm0-10.185a4.092 4.092 0 1 0 4.1 4.1 4.106 4.106 0 0 0 -4.1-4.1z"/><path d="m36.8 72a4.763 4.763 0 0 1 -4.723-4.252l-2.544-23.66a12.213 12.213 0 0 1 1.538-7.388l2.564-4.507a2.737 2.737 0 0 0 -.177-2.974l-6.805-9.229a8.112 8.112 0 0 1 -1.153-2.218l-3.489-10.3a4.142 4.142 0 1 1 7.876-2.565l2.86 9.146a7.414 7.414 0 0 0 1.041 2.093l2.287 3.209a1.328 1.328 0 0 0 1.08.557l3.693-.005h3.018a1.614 1.614 0 0 0 1.276-.62l11.852-15.094a4 4 0 0 1 5.77-.547 4 4 0 0 1 .542 5.459l-13.484 17.485a4.355 4.355 0 0 0 -.831 1.858l-1.741 9.368a1.6 1.6 0 0 0 .232 1.171l5.767 8.85a7.427 7.427 0 0 1 1.167 4.749l-1.432 14.99a4.712 4.712 0 0 1 -5.07 4.227 4.69 4.69 0 0 1 -4.247-5.3l1.761-13.1a1.436 1.436 0 0 0 -.239-1.006l-4.657-6.789a.923.923 0 0 0 -1.677.642l2.675 20.369a4.759 4.759 0 0 1 -4.17 5.349 4.791 4.791 0 0 1 -.56.032zm-10.866-68a2.148 2.148 0 0 0 -.557.073 2.142 2.142 0 0 0 -1.477 2.757l3.489 10.3a6.135 6.135 0 0 0 .872 1.671l6.807 9.225a4.739 4.739 0 0 1 .306 5.15l-2.564 4.509a10.229 10.229 0 0 0 -1.287 6.19l2.544 23.66a2.76 2.76 0 1 0 5.481-.655l-2.676-20.371a2.922 2.922 0 0 1 5.308-2.034l4.658 6.789a3.433 3.433 0 0 1 .572 2.405l-1.761 13.1a2.69 2.69 0 0 0 2.437 3.04 2.711 2.711 0 0 0 2.908-2.425l1.432-14.984a5.425 5.425 0 0 0 -.853-3.466l-5.767-8.851a3.587 3.587 0 0 1 -.523-2.629l1.741-9.368a6.373 6.373 0 0 1 1.214-2.714l13.484-17.488a2 2 0 0 0 -.271-2.729 2 2 0 0 0 -2.885.273l-11.854 15.093a3.6 3.6 0 0 1 -2.849 1.385l-6.709.005a3.333 3.333 0 0 1 -2.709-1.4l-2.287-3.209a9.385 9.385 0 0 1 -1.32-2.657l-2.864-9.145a2.139 2.139 0 0 0 -2.04-1.5z"/><path d="m58.144 44.106a2.9 2.9 0 0 1 -2.082-.817c-1.3-1.3-1.05-3.6.579-5.229s3.925-1.883 5.229-.58a3.013 3.013 0 0 1 .773 2.64 4.97 4.97 0 0 1 -3.943 3.943 3.573 3.573 0 0 1 -.556.043zm1.63-5.454a1.621 1.621 0 0 0 -.249.02 2.969 2.969 0 0 0 -2.271 2.271 1.1 1.1 0 0 0 .223.931 1.077 1.077 0 0 0 .917.211 2.983 2.983 0 0 0 2.274-2.274 1.079 1.079 0 0 0 -.212-.917.947.947 0 0 0 -.683-.241z"/><path d="m11.473 42.617a2.883 2.883 0 0 1 -2.078-.823c-1.3-1.3-1.049-3.6.579-5.229s3.926-1.883 5.229-.58c1.3 1.3 1.035 3.587-.593 5.215a4.541 4.541 0 0 1 -3.137 1.417zm1.642-5.459a2.624 2.624 0 0 0 -1.727.821c-.793.794-1.063 1.916-.579 2.4.425.425 1.511.285 2.388-.593s1.017-1.962.593-2.387a.929.929 0 0 0 -.676-.241z"/><path d="m21.249 39.217a2.883 2.883 0 0 1 -2.078-.823c-1.3-1.3-1.049-3.6.579-5.229s3.924-1.883 5.229-.58c1.3 1.3 1.036 3.586-.592 5.215a4.543 4.543 0 0 1 -3.138 1.417zm1.634-5.46a1.621 1.621 0 0 0 -.249.02 2.766 2.766 0 0 0 -1.47.8c-.793.793-1.063 1.916-.579 2.4.425.424 1.509.286 2.388-.593s1.017-1.963.592-2.387a.947.947 0 0 0 -.682-.24z"/><path d="m61.162 39.188a1 1 0 0 1 -.929-.629l-4.933-12.309a1 1 0 0 1 .813-1.365 8.89 8.89 0 0 1 9.261 6.169 1 1 0 1 1 -1.887.664 6.8 6.8 0 0 0 -5.769-4.81l4.369 10.908a1 1 0 0 1 -.929 1.372z"/><path d="m14.9 38.339a1 1 0 0 1 -.934-.643l-3.853-10.068a1.781 1.781 0 0 1 1.016-2.291l8.108-3.21a1.788 1.788 0 0 1 2.334 1.039l4.067 10.5a1 1 0 0 1 -1.865.723l-4-10.323-7.713 3.054 3.775 9.861a1 1 0 0 1 -.934 1.358z"/><path d="m12.3 31.692a1 1 0 0 1 -.38-1.926l9.545-3.917a1 1 0 0 1 .76 1.851l-9.545 3.917a1 1 0 0 1 -.38.075z"/></svg>