<svg id="Capa_1" enable-background="new 0 0 512 512" height="512" viewBox="0 0 512 512" width="512" xmlns="http://www.w3.org/2000/svg"><g><path d="m402.823 420.503c-4.143 0-7.5-3.358-7.5-7.5v-26.214h-185.283c-4.143 0-7.5-3.358-7.5-7.5s3.357-7.5 7.5-7.5h185.283v-52.5h-46.373c-2.02 4.391-4.493 8.448-7.418 12.157-8.543 10.833-20.526 17.977-34.653 20.659-14.262 2.707-28.239-.547-38.356-8.926-7.496-6.208-12.136-14.775-13.037-23.89h-12.426c-4.143 0-7.5-3.358-7.5-7.5s3.357-7.5 7.5-7.5h13.923c4.828-16.355 19.922-28.401 41.761-32.546 15.862-3.011 31.81.219 41.894 3.222v-23.176h-120.598c-4.143 0-7.5-3.358-7.5-7.5s3.357-7.5 7.5-7.5h120.597v-52.5h-183.01c-4.143 0-7.5-3.358-7.5-7.5s3.357-7.5 7.5-7.5h183.01v-52.5h-143.371c-4.143 0-7.5-3.358-7.5-7.5s3.357-7.5 7.5-7.5h307.234c4.143 0 7.5 3.358 7.5 7.5s-3.357 7.5-7.5 7.5h-148.863v52.5h148.863c4.143 0 7.5 3.358 7.5 7.5s-3.357 7.5-7.5 7.5h-16.902c5.17 6.302 8.039 14.021 8.039 21.988 0 12.079-4.915 22.604-13.7 30.512h22.563c4.143 0 7.5 3.358 7.5 7.5s-3.357 7.5-7.5 7.5c0 0-64.193-.032-65.91-.038-10.961-.039-21.097-2.289-28.267-4.424v56.962h94.177c4.143 0 7.5 3.358 7.5 7.5s-3.357 7.5-7.5 7.5h-94.177v52.5h94.177c4.143 0 7.5 3.358 7.5 7.5s-3.357 7.5-7.5 7.5h-94.177v26.214c0 4.142-3.357 7.5-7.5 7.5zm-278.435 79.799c-10.508 0-20.708-3.291-29.386-9.588-10.989-7.975-18.154-19.761-20.174-33.187-.615-4.096 2.205-7.916 6.302-8.532 4.094-.619 7.916 2.205 8.532 6.301 1.416 9.417 6.441 17.685 14.15 23.278 7.705 5.592 17.127 7.807 26.53 6.229 18.835-3.155 31.8-21.406 28.9-40.685l-8.85-58.845c-5.183.995-10.531 1.516-15.999 1.516h-126.893c-4.143 0-7.5-3.358-7.5-7.5s3.357-7.5 7.5-7.5h76.181c-18.642-12.102-32.719-30.67-39.026-52.5h-37.155c-4.143 0-7.5-3.358-7.5-7.5s3.357-7.5 7.5-7.5h34.135c-.417-3.574-.631-7.206-.631-10.89 0-14.646 3.338-28.786 9.752-41.621l-43.254.011c-4.143.001-7.501-3.356-7.502-7.498s3.356-7.501 7.498-7.502l52.609-.013 38.766-52.487h-91.373c-4.143 0-7.5-3.358-7.5-7.5s3.357-7.5 7.5-7.5h102.452l6.61-8.95-6.551-43.55h-102.511c-4.143 0-7.5-3.358-7.5-7.5s3.357-7.5 7.5-7.5h100.256l-.451-2.998c-5.993-39.849 5.563-70.32 31.705-83.6 14.331-7.281 32.117-2.861 41.377 10.275 16.892 23.966 12.85 56.303-11.09 88.719l-36.978 50.066 10.905 72.503 10.458-.002h.002c36.047 0 65.373 29.326 65.373 65.372 0 35.922-22.488 66.69-54.125 78.967l9.145 60.794c4.108 27.322-14.398 53.21-41.256 57.709-2.817.474-5.636.708-8.433.708zm-63.992-181.013c10.717 30.542 39.841 52.5 73.998 52.5 4.71 0 9.314-.47 13.765-1.366l-7.69-51.134h-19.363c-.084.001-.165.001-.245 0zm95.242 0 6.996 46.518c19.295-8.589 33.99-25.695 39.284-46.518zm-2.256-15h50.643c.022-.719.033-1.439.033-2.164 0-27.775-22.598-50.372-50.373-50.372h-.003c-2.771 0-5.472.316-8.064.914zm-29.283 0h14.114l-6.741-44.821c-8.333 6.581-13.691 16.771-13.691 28.189-.001 6.146 2.275 12.071 6.318 16.632zm-67.341 0h49.647c-2.361-5.171-3.625-10.84-3.625-16.631 0-13.993 5.674-26.685 14.844-35.896l-49.672.012c-7.836 12.455-11.948 26.726-11.948 41.625 0 3.694.257 7.331.754 10.89zm62.959-122.973-40.958 55.456 49.297-.012zm5.464-64.527 3.983 26.486 19.563-26.486zm-2.256-15h36.783c9.898-14.469 25.283-43.75 8.418-67.68-4.996-7.088-14.592-9.47-22.323-5.544-28.418 14.436-26.017 52.36-23.664 67.995zm178.615 184.692c-19.547 3.709-31.217 14.751-31.217 29.535 0 5.919 2.758 11.463 7.766 15.61 6.666 5.52 16.145 7.611 25.993 5.742 21.815-4.141 34.895-21.037 36.407-46.68-7.66-2.653-23.724-7.099-38.949-4.207zm147.88-50.669c19.547-3.709 31.217-14.751 31.217-29.535 0-5.919-2.758-11.463-7.766-15.61-6.666-5.52-16.145-7.611-25.993-5.742-21.815 4.141-34.895 21.037-36.407 46.68 7.66 2.652 23.724 7.098 38.949 4.207zm-95.6 68.477h41.503v-52.5h-39.687v33.8c.001 6.641-.607 12.881-1.816 18.7zm1.817-67.5h39.687v-.086c0-18.56 4.745-33.988 14.105-45.856 1.864-2.365 3.892-4.553 6.07-6.558h-59.862z"/></g></svg>