<svg id="Icons" height="512" viewBox="0 0 74 74" width="512" xmlns="http://www.w3.org/2000/svg"><path d="m50.552 68.292h-45.103a3.65 3.65 0 0 1 -3.449-3.815v-33.017a3.649 3.649 0 0 1 3.449-3.814h45.1a3.649 3.649 0 0 1 3.451 3.814v33.017a3.65 3.65 0 0 1 -3.448 3.815zm-45.103-38.646a1.665 1.665 0 0 0 -1.449 1.814v33.017a1.665 1.665 0 0 0 1.449 1.815h45.1a1.665 1.665 0 0 0 1.451-1.815v-33.017a1.665 1.665 0 0 0 -1.449-1.814z"/><path d="m60.368 58.165h-7.368a1 1 0 0 1 -1-1v-18.392a1 1 0 0 1 1-1h7.367a1 1 0 0 1 1 1v18.392a1 1 0 0 1 -.999 1zm-6.367-2h5.367v-16.392h-5.368z"/><path d="m71 63.337h-.229c-3.05 0-4.411-.92-6.665-2.443l-4.3-2.9a1 1 0 0 1 1.118-1.659l4.3 2.9c1.896 1.282 2.876 1.944 4.776 2.077v-26.833c-1.764.17-2.745.836-4.573 2.075l-4.5 3.048a1 1 0 0 1 -1.121-1.657l4.5-3.046c2.265-1.536 3.633-2.463 6.695-2.463a1 1 0 0 1 1 1v28.9a1 1 0 0 1 -1.001 1.001z"/><path d="m14.134 29.646a9.782 9.782 0 1 1 9.782-9.782 9.793 9.793 0 0 1 -9.782 9.782zm0-17.564a7.782 7.782 0 1 0 7.782 7.782 7.791 7.791 0 0 0 -7.782-7.782z"/><path d="m14.134 24.206a4.343 4.343 0 1 1 4.342-4.342 4.347 4.347 0 0 1 -4.342 4.342zm0-6.685a2.343 2.343 0 1 0 2.342 2.343 2.345 2.345 0 0 0 -2.342-2.343z"/><path d="m40.558 29.646a11.969 11.969 0 1 1 11.969-11.969 11.982 11.982 0 0 1 -11.969 11.969zm0-21.938a9.969 9.969 0 1 0 9.969 9.969 9.981 9.981 0 0 0 -9.969-9.969z"/><path d="m40.558 24.206a6.529 6.529 0 1 1 6.528-6.529 6.537 6.537 0 0 1 -6.528 6.529zm0-11.058a4.529 4.529 0 1 0 4.528 4.529 4.535 4.535 0 0 0 -4.528-4.529z"/><path d="m14.133 12.082a1 1 0 0 1 -.166-1.986l23.572-4a1 1 0 0 1 .334 1.972l-23.572 4a.962.962 0 0 1 -.168.014z"/><path d="m42.247 60.126h-28.493a2.98 2.98 0 0 1 -2.83-3.1v-18.111a2.98 2.98 0 0 1 2.83-3.1h28.493a2.98 2.98 0 0 1 2.83 3.1v18.107a2.98 2.98 0 0 1 -2.83 3.104zm-28.493-22.314c-.449 0-.83.505-.83 1.1v18.11c0 .6.381 1.1.83 1.1h28.493c.449 0 .83-.5.83-1.1v-18.107c0-.6-.381-1.1-.83-1.1z"/><path d="m38.583 44.917a1 1 0 0 1 -1-1v-2a1 1 0 0 1 2 0v2a1 1 0 0 1 -1 1z"/><path d="m32 44.917a1 1 0 0 1 -1-1v-2a1 1 0 0 1 2 0v2a1 1 0 0 1 -1 1z"/><path d="m19 56.254a3.415 3.415 0 1 1 3.42-3.41 3.418 3.418 0 0 1 -3.42 3.41zm0-4.83a1.415 1.415 0 1 0 1.42 1.42 1.422 1.422 0 0 0 -1.42-1.42z"/></svg>